<?xml version="1.0" encoding="utf-8"?>
<!-- Generator: Adobe Illustrator 16.0.0, SVG Export Plug-In . SVG Version: 6.00 Build 0)  -->
<!DOCTYPE svg PUBLIC "-//W3C//DTD SVG 1.1//EN" "http://www.w3.org/Graphics/SVG/1.1/DTD/svg11.dtd">
<svg version="1.1" id="Calque_6" xmlns="http://www.w3.org/2000/svg" xmlns:xlink="http://www.w3.org/1999/xlink" x="0px" y="0px"
	 width="255.12px" height="255.12px" viewBox="0 0 255.12 255.12" enable-background="new 0 0 255.12 255.12" xml:space="preserve">
<polygon points="165.979,150.123 199.675,150.123 136.063,203.498 136.063,51.622 206.396,110.637 210.039,106.294 134.047,42.52 
	130.394,42.52 130.394,212.599 134.016,212.599 134.028,212.588 134.038,212.599 208.496,150.123 208.499,150.123 208.499,144.454 
	165.979,144.454 "/>
<polygon points="121.063,42.52 45.077,106.291 48.721,110.635 119.055,51.62 119.055,99.218 119.053,99.215 86.481,126.546 
	90.125,130.889 119.055,106.614 119.055,212.599 124.724,212.599 124.724,42.52 "/>
<rect x="109.777" y="78.288" transform="matrix(0.766 0.6428 -0.6428 0.766 94.6997 -102.189)" width="155.906" height="1.418"/>
<rect x="-10.563" y="175.412" transform="matrix(0.766 0.6428 -0.6428 0.766 128.9755 -2.1123)" width="155.906" height="1.418"/>
<rect x="126.85" y="126.85" width="1.417" height="1.417"/>
</svg>
